<svg aria-roledescription="er" role="graphics-document document" viewBox="0 0 406.4466247558594 648" style="max-width: 406.4466247558594px;" xmlns:xlink="http://www.w3.org/1999/xlink" xmlns="http://www.w3.org/2000/svg" width="100%" id="mermaid-1749540763215"><style>#mermaid-1749540763215{font-family:"trebuchet ms",verdana,arial,sans-serif;font-size:16px;fill:#333;}#mermaid-1749540763215 .error-icon{fill:#552222;}#mermaid-1749540763215 .error-text{fill:#552222;stroke:#552222;}#mermaid-1749540763215 .edge-thickness-normal{stroke-width:2px;}#mermaid-1749540763215 .edge-thickness-thick{stroke-width:3.5px;}#mermaid-1749540763215 .edge-pattern-solid{stroke-dasharray:0;}#mermaid-1749540763215 .edge-pattern-dashed{stroke-dasharray:3;}#mermaid-1749540763215 .edge-pattern-dotted{stroke-dasharray:2;}#mermaid-1749540763215 .marker{fill:#333333;stroke:#333333;}#mermaid-1749540763215 .marker.cross{stroke:#333333;}#mermaid-1749540763215 svg{font-family:"trebuchet ms",verdana,arial,sans-serif;font-size:16px;}#mermaid-1749540763215 .entityBox{fill:#ECECFF;stroke:#9370DB;}#mermaid-1749540763215 .attributeBoxOdd{fill:#ffffff;stroke:#9370DB;}#mermaid-1749540763215 .attributeBoxEven{fill:#f2f2f2;stroke:#9370DB;}#mermaid-1749540763215 .relationshipLabelBox{fill:hsl(80, 100%, 96.2745098039%);opacity:0.7;background-color:hsl(80, 100%, 96.2745098039%);}#mermaid-1749540763215 .relationshipLabelBox rect{opacity:0.5;}#mermaid-1749540763215 .relationshipLine{stroke:#333333;}#mermaid-1749540763215 .entityTitleText{text-anchor:middle;font-size:18px;fill:#333;}#mermaid-1749540763215 #MD_PARENT_START{fill:#f5f5f5!important;stroke:#333333!important;stroke-width:1;}#mermaid-1749540763215 #MD_PARENT_END{fill:#f5f5f5!important;stroke:#333333!important;stroke-width:1;}#mermaid-1749540763215 :root{--mermaid-font-family:"trebuchet ms",verdana,arial,sans-serif;}</style><g></g><defs><marker orient="auto" markerHeight="240" markerWidth="190" refY="7" refX="0" id="MD_PARENT_START"><path d="M 18,7 L9,13 L1,7 L9,1 Z"></path></marker></defs><defs><marker orient="auto" markerHeight="28" markerWidth="20" refY="7" refX="19" id="MD_PARENT_END"><path d="M 18,7 L9,13 L1,7 L9,1 Z"></path></marker></defs><defs><marker orient="auto" markerHeight="18" markerWidth="18" refY="9" refX="0" id="ONLY_ONE_START"><path d="M9,0 L9,18 M15,0 L15,18" fill="none" stroke="gray"></path></marker></defs><defs><marker orient="auto" markerHeight="18" markerWidth="18" refY="9" refX="18" id="ONLY_ONE_END"><path d="M3,0 L3,18 M9,0 L9,18" fill="none" stroke="gray"></path></marker></defs><defs><marker orient="auto" markerHeight="18" markerWidth="30" refY="9" refX="0" id="ZERO_OR_ONE_START"><circle r="6" cy="9" cx="21" fill="white" stroke="gray"></circle><path d="M9,0 L9,18" fill="none" stroke="gray"></path></marker></defs><defs><marker orient="auto" markerHeight="18" markerWidth="30" refY="9" refX="30" id="ZERO_OR_ONE_END"><circle r="6" cy="9" cx="9" fill="white" stroke="gray"></circle><path d="M21,0 L21,18" fill="none" stroke="gray"></path></marker></defs><defs><marker orient="auto" markerHeight="36" markerWidth="45" refY="18" refX="18" id="ONE_OR_MORE_START"><path d="M0,18 Q 18,0 36,18 Q 18,36 0,18 M42,9 L42,27" fill="none" stroke="gray"></path></marker></defs><defs><marker orient="auto" markerHeight="36" markerWidth="45" refY="18" refX="27" id="ONE_OR_MORE_END"><path d="M3,9 L3,27 M9,18 Q27,0 45,18 Q27,36 9,18" fill="none" stroke="gray"></path></marker></defs><defs><marker orient="auto" markerHeight="36" markerWidth="57" refY="18" refX="18" id="ZERO_OR_MORE_START"><circle r="6" cy="18" cx="48" fill="white" stroke="gray"></circle><path d="M0,18 Q18,0 36,18 Q18,36 0,18" fill="none" stroke="gray"></path></marker></defs><defs><marker orient="auto" markerHeight="36" markerWidth="57" refY="18" refX="39" id="ZERO_OR_MORE_END"><circle r="6" cy="18" cx="9" fill="white" stroke="gray"></circle><path d="M21,18 Q39,0 57,18 Q39,36 21,18" fill="none" stroke="gray"></path></marker></defs><path style="stroke: gray; fill: none;" marker-start="url(#ONLY_ONE_START)" marker-end="url(#ZERO_OR_MORE_END)" d="M82.432,170L82.432,178.333C82.432,186.667,82.432,203.333,82.432,223.5C82.432,243.667,82.432,267.333,82.432,279.167L82.432,291" class="er relationshipLine"></path><path style="stroke: gray; fill: none;" marker-start="url(#ONLY_ONE_START)" marker-end="url(#ZERO_OR_MORE_END)" d="M82.432,399L82.432,410.833C82.432,422.667,82.432,446.333,91.776,466.5C101.12,486.667,119.808,503.333,129.151,511.667L138.495,520" class="er relationshipLine"></path><path style="stroke: gray; fill: none;" marker-start="url(#ONLY_ONE_START)" marker-end="url(#ZERO_OR_MORE_END)" d="M315.655,420L315.655,428.333C315.655,436.667,315.655,453.333,306.311,470C296.968,486.667,278.28,503.333,268.936,511.667L259.592,520" class="er relationshipLine"></path><g transform="translate(30.739654541015625,20 )" id="entity-CUSTOMER-7c659eae-ee79-5f5d-acd7-c418f8ad1d67"><rect height="150" width="103.38473510742188" y="0" x="0" class="er entityBox"></rect><text style="dominant-baseline: middle; text-anchor: middle; font-size: 12px;" transform="translate(51.69236755371094,12)" y="0" x="0" id="text-entity-CUSTOMER-7c659eae-ee79-5f5d-acd7-c418f8ad1d67" class="er entityLabel">CUSTOMER</text><rect height="21" width="40.926544189453125" y="24" x="0" class="er attributeBoxOdd"></rect><text style="dominant-baseline: middle; font-size: 10.2px;" transform="translate(5,34.5)" y="0" x="0" id="text-entity-CUSTOMER-7c659eae-ee79-5f5d-acd7-c418f8ad1d67-attr-1-type" class="er entityLabel">string</text><rect height="21" width="38.6632080078125" y="24" x="40.926544189453125" class="er attributeBoxOdd"></rect><text style="dominant-baseline: middle; font-size: 10.2px;" transform="translate(45.926544189453125,34.5)" y="0" x="0" id="text-entity-CUSTOMER-7c659eae-ee79-5f5d-acd7-c418f8ad1d67-attr-1-name" class="er entityLabel">id</text><rect height="21" width="23.79498291015625" y="24" x="79.58975219726562" class="er attributeBoxOdd"></rect><text style="dominant-baseline: middle; font-size: 10.2px;" transform="translate(84.58975219726562,34.5)" y="0" x="0" id="text-entity-CUSTOMER-7c659eae-ee79-5f5d-acd7-c418f8ad1d67-attr-1-key" class="er entityLabel">PK</text><rect height="21" width="40.926544189453125" y="45" x="0" class="er attributeBoxEven"></rect><text style="dominant-baseline: middle; font-size: 10.2px;" transform="translate(5,55.5)" y="0" x="0" id="text-entity-CUSTOMER-7c659eae-ee79-5f5d-acd7-c418f8ad1d67-attr-2-type" class="er entityLabel">string</text><rect height="21" width="38.6632080078125" y="45" x="40.926544189453125" class="er attributeBoxEven"></rect><text style="dominant-baseline: middle; font-size: 10.2px;" transform="translate(45.926544189453125,55.5)" y="0" x="0" id="text-entity-CUSTOMER-7c659eae-ee79-5f5d-acd7-c418f8ad1d67-attr-2-name" class="er entityLabel">name</text><rect height="21" width="23.79498291015625" y="45" x="79.58975219726562" class="er attributeBoxEven"></rect><text style="dominant-baseline: middle; font-size: 10.2px;" transform="translate(84.58975219726562,55.5)" y="0" x="0" id="text-entity-CUSTOMER-7c659eae-ee79-5f5d-acd7-c418f8ad1d67-attr-2-key" class="er entityLabel"></text><rect height="21" width="40.926544189453125" y="66" x="0" class="er attributeBoxOdd"></rect><text style="dominant-baseline: middle; font-size: 10.2px;" transform="translate(5,76.5)" y="0" x="0" id="text-entity-CUSTOMER-7c659eae-ee79-5f5d-acd7-c418f8ad1d67-attr-3-type" class="er entityLabel">string</text><rect height="21" width="38.6632080078125" y="66" x="40.926544189453125" class="er attributeBoxOdd"></rect><text style="dominant-baseline: middle; font-size: 10.2px;" transform="translate(45.926544189453125,76.5)" y="0" x="0" id="text-entity-CUSTOMER-7c659eae-ee79-5f5d-acd7-c418f8ad1d67-attr-3-name" class="er entityLabel">email</text><rect height="21" width="23.79498291015625" y="66" x="79.58975219726562" class="er attributeBoxOdd"></rect><text style="dominant-baseline: middle; font-size: 10.2px;" transform="translate(84.58975219726562,76.5)" y="0" x="0" id="text-entity-CUSTOMER-7c659eae-ee79-5f5d-acd7-c418f8ad1d67-attr-3-key" class="er entityLabel"></text><rect height="21" width="40.926544189453125" y="87" x="0" class="er attributeBoxEven"></rect><text style="dominant-baseline: middle; font-size: 10.2px;" transform="translate(5,97.5)" y="0" x="0" id="text-entity-CUSTOMER-7c659eae-ee79-5f5d-acd7-c418f8ad1d67-attr-4-type" class="er entityLabel">string</text><rect height="21" width="38.6632080078125" y="87" x="40.926544189453125" class="er attributeBoxEven"></rect><text style="dominant-baseline: middle; font-size: 10.2px;" transform="translate(45.926544189453125,97.5)" y="0" x="0" id="text-entity-CUSTOMER-7c659eae-ee79-5f5d-acd7-c418f8ad1d67-attr-4-name" class="er entityLabel">phone</text><rect height="21" width="23.79498291015625" y="87" x="79.58975219726562" class="er attributeBoxEven"></rect><text style="dominant-baseline: middle; font-size: 10.2px;" transform="translate(84.58975219726562,97.5)" y="0" x="0" id="text-entity-CUSTOMER-7c659eae-ee79-5f5d-acd7-c418f8ad1d67-attr-4-key" class="er entityLabel"></text><rect height="21" width="40.926544189453125" y="108" x="0" class="er attributeBoxOdd"></rect><text style="dominant-baseline: middle; font-size: 10.2px;" transform="translate(5,118.5)" y="0" x="0" id="text-entity-CUSTOMER-7c659eae-ee79-5f5d-acd7-c418f8ad1d67-attr-5-type" class="er entityLabel">unique</text><rect height="21" width="38.6632080078125" y="108" x="40.926544189453125" class="er attributeBoxOdd"></rect><text style="dominant-baseline: middle; font-size: 10.2px;" transform="translate(45.926544189453125,118.5)" y="0" x="0" id="text-entity-CUSTOMER-7c659eae-ee79-5f5d-acd7-c418f8ad1d67-attr-5-name" class="er entityLabel">email</text><rect height="21" width="23.79498291015625" y="108" x="79.58975219726562" class="er attributeBoxOdd"></rect><text style="dominant-baseline: middle; font-size: 10.2px;" transform="translate(84.58975219726562,118.5)" y="0" x="0" id="text-entity-CUSTOMER-7c659eae-ee79-5f5d-acd7-c418f8ad1d67-attr-5-key" class="er entityLabel"></text><rect height="21" width="40.926544189453125" y="129" x="0" class="er attributeBoxEven"></rect><text style="dominant-baseline: middle; font-size: 10.2px;" transform="translate(5,139.5)" y="0" x="0" id="text-entity-CUSTOMER-7c659eae-ee79-5f5d-acd7-c418f8ad1d67-attr-6-type" class="er entityLabel">unique</text><rect height="21" width="38.6632080078125" y="129" x="40.926544189453125" class="er attributeBoxEven"></rect><text style="dominant-baseline: middle; font-size: 10.2px;" transform="translate(45.926544189453125,139.5)" y="0" x="0" id="text-entity-CUSTOMER-7c659eae-ee79-5f5d-acd7-c418f8ad1d67-attr-6-name" class="er entityLabel">phone</text><rect height="21" width="23.79498291015625" y="129" x="79.58975219726562" class="er attributeBoxEven"></rect><text style="dominant-baseline: middle; font-size: 10.2px;" transform="translate(84.58975219726562,139.5)" y="0" x="0" id="text-entity-CUSTOMER-7c659eae-ee79-5f5d-acd7-c418f8ad1d67-attr-6-key" class="er entityLabel"></text></g><g transform="translate(244.86404418945312,270 )" id="entity-PRODUCT-b14524a1-8e20-5805-a382-423fd1ec339f"><rect height="150" width="141.58258056640625" y="0" x="0" class="er entityBox"></rect><text style="dominant-baseline: middle; text-anchor: middle; font-size: 12px;" transform="translate(70.79129028320312,12)" y="0" x="0" id="text-entity-PRODUCT-b14524a1-8e20-5805-a382-423fd1ec339f" class="er entityLabel">PRODUCT</text><rect height="21" width="41.7569580078125" y="24" x="0" class="er attributeBoxOdd"></rect><text style="dominant-baseline: middle; font-size: 10.2px;" transform="translate(5,34.5)" y="0" x="0" id="text-entity-PRODUCT-b14524a1-8e20-5805-a382-423fd1ec339f-attr-1-type" class="er entityLabel">string</text><rect height="21" width="76.0306396484375" y="24" x="41.7569580078125" class="er attributeBoxOdd"></rect><text style="dominant-baseline: middle; font-size: 10.2px;" transform="translate(46.7569580078125,34.5)" y="0" x="0" id="text-entity-PRODUCT-b14524a1-8e20-5805-a382-423fd1ec339f-attr-1-name" class="er entityLabel">id</text><rect height="21" width="23.79498291015625" y="24" x="117.78759765625" class="er attributeBoxOdd"></rect><text style="dominant-baseline: middle; font-size: 10.2px;" transform="translate(122.78759765625,34.5)" y="0" x="0" id="text-entity-PRODUCT-b14524a1-8e20-5805-a382-423fd1ec339f-attr-1-key" class="er entityLabel">PK</text><rect height="21" width="41.7569580078125" y="45" x="0" class="er attributeBoxEven"></rect><text style="dominant-baseline: middle; font-size: 10.2px;" transform="translate(5,55.5)" y="0" x="0" id="text-entity-PRODUCT-b14524a1-8e20-5805-a382-423fd1ec339f-attr-2-type" class="er entityLabel">string</text><rect height="21" width="76.0306396484375" y="45" x="41.7569580078125" class="er attributeBoxEven"></rect><text style="dominant-baseline: middle; font-size: 10.2px;" transform="translate(46.7569580078125,55.5)" y="0" x="0" id="text-entity-PRODUCT-b14524a1-8e20-5805-a382-423fd1ec339f-attr-2-name" class="er entityLabel">name</text><rect height="21" width="23.79498291015625" y="45" x="117.78759765625" class="er attributeBoxEven"></rect><text style="dominant-baseline: middle; font-size: 10.2px;" transform="translate(122.78759765625,55.5)" y="0" x="0" id="text-entity-PRODUCT-b14524a1-8e20-5805-a382-423fd1ec339f-attr-2-key" class="er entityLabel"></text><rect height="21" width="41.7569580078125" y="66" x="0" class="er attributeBoxOdd"></rect><text style="dominant-baseline: middle; font-size: 10.2px;" transform="translate(5,76.5)" y="0" x="0" id="text-entity-PRODUCT-b14524a1-8e20-5805-a382-423fd1ec339f-attr-3-type" class="er entityLabel">string</text><rect height="21" width="76.0306396484375" y="66" x="41.7569580078125" class="er attributeBoxOdd"></rect><text style="dominant-baseline: middle; font-size: 10.2px;" transform="translate(46.7569580078125,76.5)" y="0" x="0" id="text-entity-PRODUCT-b14524a1-8e20-5805-a382-423fd1ec339f-attr-3-name" class="er entityLabel">description</text><rect height="21" width="23.79498291015625" y="66" x="117.78759765625" class="er attributeBoxOdd"></rect><text style="dominant-baseline: middle; font-size: 10.2px;" transform="translate(122.78759765625,76.5)" y="0" x="0" id="text-entity-PRODUCT-b14524a1-8e20-5805-a382-423fd1ec339f-attr-3-key" class="er entityLabel"></text><rect height="21" width="41.7569580078125" y="87" x="0" class="er attributeBoxEven"></rect><text style="dominant-baseline: middle; font-size: 10.2px;" transform="translate(5,97.5)" y="0" x="0" id="text-entity-PRODUCT-b14524a1-8e20-5805-a382-423fd1ec339f-attr-4-type" class="er entityLabel">float</text><rect height="21" width="76.0306396484375" y="87" x="41.7569580078125" class="er attributeBoxEven"></rect><text style="dominant-baseline: middle; font-size: 10.2px;" transform="translate(46.7569580078125,97.5)" y="0" x="0" id="text-entity-PRODUCT-b14524a1-8e20-5805-a382-423fd1ec339f-attr-4-name" class="er entityLabel">price</text><rect height="21" width="23.79498291015625" y="87" x="117.78759765625" class="er attributeBoxEven"></rect><text style="dominant-baseline: middle; font-size: 10.2px;" transform="translate(122.78759765625,97.5)" y="0" x="0" id="text-entity-PRODUCT-b14524a1-8e20-5805-a382-423fd1ec339f-attr-4-key" class="er entityLabel"></text><rect height="21" width="41.7569580078125" y="108" x="0" class="er attributeBoxOdd"></rect><text style="dominant-baseline: middle; font-size: 10.2px;" transform="translate(5,118.5)" y="0" x="0" id="text-entity-PRODUCT-b14524a1-8e20-5805-a382-423fd1ec339f-attr-5-type" class="er entityLabel">integer</text><rect height="21" width="76.0306396484375" y="108" x="41.7569580078125" class="er attributeBoxOdd"></rect><text style="dominant-baseline: middle; font-size: 10.2px;" transform="translate(46.7569580078125,118.5)" y="0" x="0" id="text-entity-PRODUCT-b14524a1-8e20-5805-a382-423fd1ec339f-attr-5-name" class="er entityLabel">stock_quantity</text><rect height="21" width="23.79498291015625" y="108" x="117.78759765625" class="er attributeBoxOdd"></rect><text style="dominant-baseline: middle; font-size: 10.2px;" transform="translate(122.78759765625,118.5)" y="0" x="0" id="text-entity-PRODUCT-b14524a1-8e20-5805-a382-423fd1ec339f-attr-5-key" class="er entityLabel"></text><rect height="21" width="41.7569580078125" y="129" x="0" class="er attributeBoxEven"></rect><text style="dominant-baseline: middle; font-size: 10.2px;" transform="translate(5,139.5)" y="0" x="0" id="text-entity-PRODUCT-b14524a1-8e20-5805-a382-423fd1ec339f-attr-6-type" class="er entityLabel">unique</text><rect height="21" width="76.0306396484375" y="129" x="41.7569580078125" class="er attributeBoxEven"></rect><text style="dominant-baseline: middle; font-size: 10.2px;" transform="translate(46.7569580078125,139.5)" y="0" x="0" id="text-entity-PRODUCT-b14524a1-8e20-5805-a382-423fd1ec339f-attr-6-name" class="er entityLabel">name</text><rect height="21" width="23.79498291015625" y="129" x="117.78759765625" class="er attributeBoxEven"></rect><text style="dominant-baseline: middle; font-size: 10.2px;" transform="translate(122.78759765625,139.5)" y="0" x="0" id="text-entity-PRODUCT-b14524a1-8e20-5805-a382-423fd1ec339f-attr-6-key" class="er entityLabel"></text></g><g transform="translate(20,291 )" id="entity-ORDER-36941e20-eb1d-50a3-81c5-00079b43c24a"><rect height="108" width="124.86404418945312" y="0" x="0" class="er entityBox"></rect><text style="dominant-baseline: middle; text-anchor: middle; font-size: 12px;" transform="translate(62.43202209472656,12)" y="0" x="0" id="text-entity-ORDER-36941e20-eb1d-50a3-81c5-00079b43c24a" class="er entityLabel">ORDER</text><rect height="21" width="35.245819091796875" y="24" x="0" class="er attributeBoxOdd"></rect><text style="dominant-baseline: middle; font-size: 10.2px;" transform="translate(5,34.5)" y="0" x="0" id="text-entity-ORDER-36941e20-eb1d-50a3-81c5-00079b43c24a-attr-1-type" class="er entityLabel">string</text><rect height="21" width="65.8232421875" y="24" x="35.245819091796875" class="er attributeBoxOdd"></rect><text style="dominant-baseline: middle; font-size: 10.2px;" transform="translate(40.245819091796875,34.5)" y="0" x="0" id="text-entity-ORDER-36941e20-eb1d-50a3-81c5-00079b43c24a-attr-1-name" class="er entityLabel">id</text><rect height="21" width="23.79498291015625" y="24" x="101.06906127929688" class="er attributeBoxOdd"></rect><text style="dominant-baseline: middle; font-size: 10.2px;" transform="translate(106.06906127929688,34.5)" y="0" x="0" id="text-entity-ORDER-36941e20-eb1d-50a3-81c5-00079b43c24a-attr-1-key" class="er entityLabel">PK</text><rect height="21" width="35.245819091796875" y="45" x="0" class="er attributeBoxEven"></rect><text style="dominant-baseline: middle; font-size: 10.2px;" transform="translate(5,55.5)" y="0" x="0" id="text-entity-ORDER-36941e20-eb1d-50a3-81c5-00079b43c24a-attr-2-type" class="er entityLabel">date</text><rect height="21" width="65.8232421875" y="45" x="35.245819091796875" class="er attributeBoxEven"></rect><text style="dominant-baseline: middle; font-size: 10.2px;" transform="translate(40.245819091796875,55.5)" y="0" x="0" id="text-entity-ORDER-36941e20-eb1d-50a3-81c5-00079b43c24a-attr-2-name" class="er entityLabel">order_date</text><rect height="21" width="23.79498291015625" y="45" x="101.06906127929688" class="er attributeBoxEven"></rect><text style="dominant-baseline: middle; font-size: 10.2px;" transform="translate(106.06906127929688,55.5)" y="0" x="0" id="text-entity-ORDER-36941e20-eb1d-50a3-81c5-00079b43c24a-attr-2-key" class="er entityLabel"></text><rect height="21" width="35.245819091796875" y="66" x="0" class="er attributeBoxOdd"></rect><text style="dominant-baseline: middle; font-size: 10.2px;" transform="translate(5,76.5)" y="0" x="0" id="text-entity-ORDER-36941e20-eb1d-50a3-81c5-00079b43c24a-attr-3-type" class="er entityLabel">string</text><rect height="21" width="65.8232421875" y="66" x="35.245819091796875" class="er attributeBoxOdd"></rect><text style="dominant-baseline: middle; font-size: 10.2px;" transform="translate(40.245819091796875,76.5)" y="0" x="0" id="text-entity-ORDER-36941e20-eb1d-50a3-81c5-00079b43c24a-attr-3-name" class="er entityLabel">customer_id</text><rect height="21" width="23.79498291015625" y="66" x="101.06906127929688" class="er attributeBoxOdd"></rect><text style="dominant-baseline: middle; font-size: 10.2px;" transform="translate(106.06906127929688,76.5)" y="0" x="0" id="text-entity-ORDER-36941e20-eb1d-50a3-81c5-00079b43c24a-attr-3-key" class="er entityLabel">FK</text><rect height="21" width="35.245819091796875" y="87" x="0" class="er attributeBoxEven"></rect><text style="dominant-baseline: middle; font-size: 10.2px;" transform="translate(5,97.5)" y="0" x="0" id="text-entity-ORDER-36941e20-eb1d-50a3-81c5-00079b43c24a-attr-4-type" class="er entityLabel">string</text><rect height="21" width="65.8232421875" y="87" x="35.245819091796875" class="er attributeBoxEven"></rect><text style="dominant-baseline: middle; font-size: 10.2px;" transform="translate(40.245819091796875,97.5)" y="0" x="0" id="text-entity-ORDER-36941e20-eb1d-50a3-81c5-00079b43c24a-attr-4-name" class="er entityLabel">status</text><rect height="21" width="23.79498291015625" y="87" x="101.06906127929688" class="er attributeBoxEven"></rect><text style="dominant-baseline: middle; font-size: 10.2px;" transform="translate(106.06906127929688,97.5)" y="0" x="0" id="text-entity-ORDER-36941e20-eb1d-50a3-81c5-00079b43c24a-attr-4-key" class="er entityLabel"></text></g><g transform="translate(137.31319427490234,520 )" id="entity-ORDERITEM-e5349d72-b47b-55be-8020-113016425f62"><rect height="108" width="123.46096801757812" y="0" x="0" class="er entityBox"></rect><text style="dominant-baseline: middle; text-anchor: middle; font-size: 12px;" transform="translate(61.73048400878906,12)" y="0" x="0" id="text-entity-ORDERITEM-e5349d72-b47b-55be-8020-113016425f62" class="er entityLabel">ORDER_ITEM</text><rect height="21" width="41.7569580078125" y="24" x="0" class="er attributeBoxOdd"></rect><text style="dominant-baseline: middle; font-size: 10.2px;" transform="translate(5,34.5)" y="0" x="0" id="text-entity-ORDERITEM-e5349d72-b47b-55be-8020-113016425f62-attr-1-type" class="er entityLabel">string</text><rect height="21" width="57.909027099609375" y="24" x="41.7569580078125" class="er attributeBoxOdd"></rect><text style="dominant-baseline: middle; font-size: 10.2px;" transform="translate(46.7569580078125,34.5)" y="0" x="0" id="text-entity-ORDERITEM-e5349d72-b47b-55be-8020-113016425f62-attr-1-name" class="er entityLabel">id</text><rect height="21" width="23.79498291015625" y="24" x="99.66598510742188" class="er attributeBoxOdd"></rect><text style="dominant-baseline: middle; font-size: 10.2px;" transform="translate(104.66598510742188,34.5)" y="0" x="0" id="text-entity-ORDERITEM-e5349d72-b47b-55be-8020-113016425f62-attr-1-key" class="er entityLabel">PK</text><rect height="21" width="41.7569580078125" y="45" x="0" class="er attributeBoxEven"></rect><text style="dominant-baseline: middle; font-size: 10.2px;" transform="translate(5,55.5)" y="0" x="0" id="text-entity-ORDERITEM-e5349d72-b47b-55be-8020-113016425f62-attr-2-type" class="er entityLabel">string</text><rect height="21" width="57.909027099609375" y="45" x="41.7569580078125" class="er attributeBoxEven"></rect><text style="dominant-baseline: middle; font-size: 10.2px;" transform="translate(46.7569580078125,55.5)" y="0" x="0" id="text-entity-ORDERITEM-e5349d72-b47b-55be-8020-113016425f62-attr-2-name" class="er entityLabel">order_id</text><rect height="21" width="23.79498291015625" y="45" x="99.66598510742188" class="er attributeBoxEven"></rect><text style="dominant-baseline: middle; font-size: 10.2px;" transform="translate(104.66598510742188,55.5)" y="0" x="0" id="text-entity-ORDERITEM-e5349d72-b47b-55be-8020-113016425f62-attr-2-key" class="er entityLabel">FK</text><rect height="21" width="41.7569580078125" y="66" x="0" class="er attributeBoxOdd"></rect><text style="dominant-baseline: middle; font-size: 10.2px;" transform="translate(5,76.5)" y="0" x="0" id="text-entity-ORDERITEM-e5349d72-b47b-55be-8020-113016425f62-attr-3-type" class="er entityLabel">string</text><rect height="21" width="57.909027099609375" y="66" x="41.7569580078125" class="er attributeBoxOdd"></rect><text style="dominant-baseline: middle; font-size: 10.2px;" transform="translate(46.7569580078125,76.5)" y="0" x="0" id="text-entity-ORDERITEM-e5349d72-b47b-55be-8020-113016425f62-attr-3-name" class="er entityLabel">product_id</text><rect height="21" width="23.79498291015625" y="66" x="99.66598510742188" class="er attributeBoxOdd"></rect><text style="dominant-baseline: middle; font-size: 10.2px;" transform="translate(104.66598510742188,76.5)" y="0" x="0" id="text-entity-ORDERITEM-e5349d72-b47b-55be-8020-113016425f62-attr-3-key" class="er entityLabel">FK</text><rect height="21" width="41.7569580078125" y="87" x="0" class="er attributeBoxEven"></rect><text style="dominant-baseline: middle; font-size: 10.2px;" transform="translate(5,97.5)" y="0" x="0" id="text-entity-ORDERITEM-e5349d72-b47b-55be-8020-113016425f62-attr-4-type" class="er entityLabel">integer</text><rect height="21" width="57.909027099609375" y="87" x="41.7569580078125" class="er attributeBoxEven"></rect><text style="dominant-baseline: middle; font-size: 10.2px;" transform="translate(46.7569580078125,97.5)" y="0" x="0" id="text-entity-ORDERITEM-e5349d72-b47b-55be-8020-113016425f62-attr-4-name" class="er entityLabel">quantity</text><rect height="21" width="23.79498291015625" y="87" x="99.66598510742188" class="er attributeBoxEven"></rect><text style="dominant-baseline: middle; font-size: 10.2px;" transform="translate(104.66598510742188,97.5)" y="0" x="0" id="text-entity-ORDERITEM-e5349d72-b47b-55be-8020-113016425f62-attr-4-key" class="er entityLabel"></text></g><rect height="14" width="34.6875" y="223.5" x="65.08824920654297" class="er relationshipLabelBox"></rect><text style="text-anchor: middle; dominant-baseline: middle; font-size: 12px;" y="230.5" x="82.43199920654297" id="rel1" class="er relationshipLabel">places</text><rect height="14" width="44.703125" y="460.77392578125" x="70.0296401977539" class="er relationshipLabelBox"></rect><text style="text-anchor: middle; dominant-baseline: middle; font-size: 12px;" y="467.77392578125" x="92.3812026977539" id="rel2" class="er relationshipLabel">contains</text><rect height="14" width="44.03125" y="470.2461242675781" x="279.6832275390625" class="er relationshipLabelBox"></rect><text style="text-anchor: middle; dominant-baseline: middle; font-size: 12px;" y="477.2461242675781" x="301.6988525390625" id="rel3" class="er relationshipLabel">includes</text></svg>