<svg aria-roledescription="er" role="graphics-document document" viewBox="0 0 409.799072265625 585" style="max-width: 409.799072265625px;" xmlns:xlink="http://www.w3.org/1999/xlink" xmlns="http://www.w3.org/2000/svg" width="150" id="mermaid-1749540914111" height="900"><rect width="100%" height="100%" fill="white" stroke="none"></rect><style>#mermaid-1749540914111{font-family:"trebuchet ms",verdana,arial,sans-serif;font-size:16px;fill:#333;}#mermaid-1749540914111 .error-icon{fill:#552222;}#mermaid-1749540914111 .error-text{fill:#552222;stroke:#552222;}#mermaid-1749540914111 .edge-thickness-normal{stroke-width:2px;}#mermaid-1749540914111 .edge-thickness-thick{stroke-width:3.5px;}#mermaid-1749540914111 .edge-pattern-solid{stroke-dasharray:0;}#mermaid-1749540914111 .edge-pattern-dashed{stroke-dasharray:3;}#mermaid-1749540914111 .edge-pattern-dotted{stroke-dasharray:2;}#mermaid-1749540914111 .marker{fill:#333333;stroke:#333333;}#mermaid-1749540914111 .marker.cross{stroke:#333333;}#mermaid-1749540914111 svg{font-family:"trebuchet ms",verdana,arial,sans-serif;font-size:16px;}#mermaid-1749540914111 .entityBox{fill:#ffffff;stroke:#9370DB;}#mermaid-1749540914111 .attributeBoxOdd{fill:#ffffff;stroke:#9370DB;}#mermaid-1749540914111 .attributeBoxEven{fill:#f2f2f2;stroke:#9370DB;}#mermaid-1749540914111 .relationshipLabelBox{fill:hsl(80, 100%, 96.2745098039%);opacity:0.7;background-color:hsl(80, 100%, 96.2745098039%);}#mermaid-1749540914111 .relationshipLabelBox rect{opacity:0.5;}#mermaid-1749540914111 .relationshipLine{stroke:#333333;}#mermaid-1749540914111 .entityTitleText{text-anchor:middle;font-size:18px;fill:#333;}#mermaid-1749540914111 #MD_PARENT_START{fill:#f5f5f5!important;stroke:#333333!important;stroke-width:1;}#mermaid-1749540914111 #MD_PARENT_END{fill:#f5f5f5!important;stroke:#333333!important;stroke-width:1;}#mermaid-1749540914111 :root{--mermaid-font-family:"trebuchet ms",verdana,arial,sans-serif;}</style><g></g><defs><marker orient="auto" markerHeight="240" markerWidth="190" refY="7" refX="0" id="MD_PARENT_START"><path d="M 18,7 L9,13 L1,7 L9,1 Z"></path></marker></defs><defs><marker orient="auto" markerHeight="28" markerWidth="20" refY="7" refX="19" id="MD_PARENT_END"><path d="M 18,7 L9,13 L1,7 L9,1 Z"></path></marker></defs><defs><marker orient="auto" markerHeight="18" markerWidth="18" refY="9" refX="0" id="ONLY_ONE_START"><path d="M9,0 L9,18 M15,0 L15,18" fill="none" stroke="gray"></path></marker></defs><defs><marker orient="auto" markerHeight="18" markerWidth="18" refY="9" refX="18" id="ONLY_ONE_END"><path d="M3,0 L3,18 M9,0 L9,18" fill="none" stroke="gray"></path></marker></defs><defs><marker orient="auto" markerHeight="18" markerWidth="30" refY="9" refX="0" id="ZERO_OR_ONE_START"><circle r="6" cy="9" cx="21" fill="white" stroke="gray"></circle><path d="M9,0 L9,18" fill="none" stroke="gray"></path></marker></defs><defs><marker orient="auto" markerHeight="18" markerWidth="30" refY="9" refX="30" id="ZERO_OR_ONE_END"><circle r="6" cy="9" cx="9" fill="white" stroke="gray"></circle><path d="M21,0 L21,18" fill="none" stroke="gray"></path></marker></defs><defs><marker orient="auto" markerHeight="36" markerWidth="45" refY="18" refX="18" id="ONE_OR_MORE_START"><path d="M0,18 Q 18,0 36,18 Q 18,36 0,18 M42,9 L42,27" fill="none" stroke="gray"></path></marker></defs><defs><marker orient="auto" markerHeight="36" markerWidth="45" refY="18" refX="27" id="ONE_OR_MORE_END"><path d="M3,9 L3,27 M9,18 Q27,0 45,18 Q27,36 9,18" fill="none" stroke="gray"></path></marker></defs><defs><marker orient="auto" markerHeight="36" markerWidth="57" refY="18" refX="18" id="ZERO_OR_MORE_START"><circle r="6" cy="18" cx="48" fill="white" stroke="gray"></circle><path d="M0,18 Q18,0 36,18 Q18,36 0,18" fill="none" stroke="gray"></path></marker></defs><defs><marker orient="auto" markerHeight="36" markerWidth="57" refY="18" refX="39" id="ZERO_OR_MORE_END"><circle r="6" cy="18" cx="9" fill="white" stroke="gray"></circle><path d="M21,18 Q39,0 57,18 Q39,36 21,18" fill="none" stroke="gray"></path></marker></defs><path style="stroke: gray; fill: none;" marker-start="url(#ONLY_ONE_START)" marker-end="url(#ZERO_OR_MORE_END)" d="M82.432,128L82.432,136.333C82.432,144.667,82.432,161.333,82.432,181.5C82.432,201.667,82.432,225.333,82.432,237.167L82.432,249" class="er relationshipLine"></path><path style="stroke: gray; fill: none;" marker-start="url(#ONLY_ONE_START)" marker-end="url(#ZERO_OR_MORE_END)" d="M82.432,336L82.432,347.833C82.432,359.667,82.432,383.333,91.843,403.5C101.254,423.667,120.076,440.333,129.487,448.667L138.898,457" class="er relationshipLine"></path><path style="stroke: gray; fill: none;" marker-start="url(#ONLY_ONE_START)" marker-end="url(#ZERO_OR_MORE_END)" d="M317.332,357L317.332,365.333C317.332,373.667,317.332,390.333,307.921,407C298.509,423.667,279.687,440.333,270.276,448.667L260.865,457" class="er relationshipLine"></path><g transform="translate(32.43202209472656,20 )" id="entity-CUSTOMER-7c659eae-ee79-5f5d-acd7-c418f8ad1d67"><rect height="108" width="100" y="0" x="0" class="er entityBox"></rect><text style="dominant-baseline: middle; text-anchor: middle; font-size: 12px;" transform="translate(50,12)" y="0" x="0" id="text-entity-CUSTOMER-7c659eae-ee79-5f5d-acd7-c418f8ad1d67" class="er entityLabel">CUSTOMER</text><rect height="21" width="36.011149088541664" y="24" x="0" class="er attributeBoxOdd"></rect><text style="dominant-baseline: middle; font-size: 10.2px;" transform="translate(5,34.5)" y="0" x="0" id="text-entity-CUSTOMER-7c659eae-ee79-5f5d-acd7-c418f8ad1d67-attr-1-type" class="er entityLabel">string</text><rect height="21" width="39.42853800455729" y="24" x="36.011149088541664" class="er attributeBoxOdd"></rect><text style="dominant-baseline: middle; font-size: 10.2px;" transform="translate(41.011149088541664,34.5)" y="0" x="0" id="text-entity-CUSTOMER-7c659eae-ee79-5f5d-acd7-c418f8ad1d67-attr-1-name" class="er entityLabel">id</text><rect height="21" width="24.560312906901043" y="24" x="75.43968709309895" class="er attributeBoxOdd"></rect><text style="dominant-baseline: middle; font-size: 10.2px;" transform="translate(80.43968709309895,34.5)" y="0" x="0" id="text-entity-CUSTOMER-7c659eae-ee79-5f5d-acd7-c418f8ad1d67-attr-1-key" class="er entityLabel">PK</text><rect height="21" width="36.011149088541664" y="45" x="0" class="er attributeBoxEven"></rect><text style="dominant-baseline: middle; font-size: 10.2px;" transform="translate(5,55.5)" y="0" x="0" id="text-entity-CUSTOMER-7c659eae-ee79-5f5d-acd7-c418f8ad1d67-attr-2-type" class="er entityLabel">string</text><rect height="21" width="39.42853800455729" y="45" x="36.011149088541664" class="er attributeBoxEven"></rect><text style="dominant-baseline: middle; font-size: 10.2px;" transform="translate(41.011149088541664,55.5)" y="0" x="0" id="text-entity-CUSTOMER-7c659eae-ee79-5f5d-acd7-c418f8ad1d67-attr-2-name" class="er entityLabel">name</text><rect height="21" width="24.560312906901043" y="45" x="75.43968709309895" class="er attributeBoxEven"></rect><text style="dominant-baseline: middle; font-size: 10.2px;" transform="translate(80.43968709309895,55.5)" y="0" x="0" id="text-entity-CUSTOMER-7c659eae-ee79-5f5d-acd7-c418f8ad1d67-attr-2-key" class="er entityLabel"></text><rect height="21" width="36.011149088541664" y="66" x="0" class="er attributeBoxOdd"></rect><text style="dominant-baseline: middle; font-size: 10.2px;" transform="translate(5,76.5)" y="0" x="0" id="text-entity-CUSTOMER-7c659eae-ee79-5f5d-acd7-c418f8ad1d67-attr-3-type" class="er entityLabel">string</text><rect height="21" width="39.42853800455729" y="66" x="36.011149088541664" class="er attributeBoxOdd"></rect><text style="dominant-baseline: middle; font-size: 10.2px;" transform="translate(41.011149088541664,76.5)" y="0" x="0" id="text-entity-CUSTOMER-7c659eae-ee79-5f5d-acd7-c418f8ad1d67-attr-3-name" class="er entityLabel">email</text><rect height="21" width="24.560312906901043" y="66" x="75.43968709309895" class="er attributeBoxOdd"></rect><text style="dominant-baseline: middle; font-size: 10.2px;" transform="translate(80.43968709309895,76.5)" y="0" x="0" id="text-entity-CUSTOMER-7c659eae-ee79-5f5d-acd7-c418f8ad1d67-attr-3-key" class="er entityLabel"></text><rect height="21" width="36.011149088541664" y="87" x="0" class="er attributeBoxEven"></rect><text style="dominant-baseline: middle; font-size: 10.2px;" transform="translate(5,97.5)" y="0" x="0" id="text-entity-CUSTOMER-7c659eae-ee79-5f5d-acd7-c418f8ad1d67-attr-4-type" class="er entityLabel">string</text><rect height="21" width="39.42853800455729" y="87" x="36.011149088541664" class="er attributeBoxEven"></rect><text style="dominant-baseline: middle; font-size: 10.2px;" transform="translate(41.011149088541664,97.5)" y="0" x="0" id="text-entity-CUSTOMER-7c659eae-ee79-5f5d-acd7-c418f8ad1d67-attr-4-name" class="er entityLabel">phone</text><rect height="21" width="24.560312906901043" y="87" x="75.43968709309895" class="er attributeBoxEven"></rect><text style="dominant-baseline: middle; font-size: 10.2px;" transform="translate(80.43968709309895,97.5)" y="0" x="0" id="text-entity-CUSTOMER-7c659eae-ee79-5f5d-acd7-c418f8ad1d67-attr-4-key" class="er entityLabel"></text></g><g transform="translate(244.86404418945312,228 )" id="entity-PRODUCT-b14524a1-8e20-5805-a382-423fd1ec339f"><rect height="129" width="144.93499755859375" y="0" x="0" class="er entityBox"></rect><text style="dominant-baseline: middle; text-anchor: middle; font-size: 12px;" transform="translate(72.46749877929688,12)" y="0" x="0" id="text-entity-PRODUCT-b14524a1-8e20-5805-a382-423fd1ec339f" class="er entityLabel">PRODUCT</text><rect height="21" width="45.109375" y="24" x="0" class="er attributeBoxOdd"></rect><text style="dominant-baseline: middle; font-size: 10.2px;" transform="translate(5,34.5)" y="0" x="0" id="text-entity-PRODUCT-b14524a1-8e20-5805-a382-423fd1ec339f-attr-1-type" class="er entityLabel">string</text><rect height="21" width="76.0306396484375" y="24" x="45.109375" class="er attributeBoxOdd"></rect><text style="dominant-baseline: middle; font-size: 10.2px;" transform="translate(50.109375,34.5)" y="0" x="0" id="text-entity-PRODUCT-b14524a1-8e20-5805-a382-423fd1ec339f-attr-1-name" class="er entityLabel">id</text><rect height="21" width="23.79498291015625" y="24" x="121.1400146484375" class="er attributeBoxOdd"></rect><text style="dominant-baseline: middle; font-size: 10.2px;" transform="translate(126.1400146484375,34.5)" y="0" x="0" id="text-entity-PRODUCT-b14524a1-8e20-5805-a382-423fd1ec339f-attr-1-key" class="er entityLabel">PK</text><rect height="21" width="45.109375" y="45" x="0" class="er attributeBoxEven"></rect><text style="dominant-baseline: middle; font-size: 10.2px;" transform="translate(5,55.5)" y="0" x="0" id="text-entity-PRODUCT-b14524a1-8e20-5805-a382-423fd1ec339f-attr-2-type" class="er entityLabel">string</text><rect height="21" width="76.0306396484375" y="45" x="45.109375" class="er attributeBoxEven"></rect><text style="dominant-baseline: middle; font-size: 10.2px;" transform="translate(50.109375,55.5)" y="0" x="0" id="text-entity-PRODUCT-b14524a1-8e20-5805-a382-423fd1ec339f-attr-2-name" class="er entityLabel">name</text><rect height="21" width="23.79498291015625" y="45" x="121.1400146484375" class="er attributeBoxEven"></rect><text style="dominant-baseline: middle; font-size: 10.2px;" transform="translate(126.1400146484375,55.5)" y="0" x="0" id="text-entity-PRODUCT-b14524a1-8e20-5805-a382-423fd1ec339f-attr-2-key" class="er entityLabel"></text><rect height="21" width="45.109375" y="66" x="0" class="er attributeBoxOdd"></rect><text style="dominant-baseline: middle; font-size: 10.2px;" transform="translate(5,76.5)" y="0" x="0" id="text-entity-PRODUCT-b14524a1-8e20-5805-a382-423fd1ec339f-attr-3-type" class="er entityLabel">string</text><rect height="21" width="76.0306396484375" y="66" x="45.109375" class="er attributeBoxOdd"></rect><text style="dominant-baseline: middle; font-size: 10.2px;" transform="translate(50.109375,76.5)" y="0" x="0" id="text-entity-PRODUCT-b14524a1-8e20-5805-a382-423fd1ec339f-attr-3-name" class="er entityLabel">description</text><rect height="21" width="23.79498291015625" y="66" x="121.1400146484375" class="er attributeBoxOdd"></rect><text style="dominant-baseline: middle; font-size: 10.2px;" transform="translate(126.1400146484375,76.5)" y="0" x="0" id="text-entity-PRODUCT-b14524a1-8e20-5805-a382-423fd1ec339f-attr-3-key" class="er entityLabel"></text><rect height="21" width="45.109375" y="87" x="0" class="er attributeBoxEven"></rect><text style="dominant-baseline: middle; font-size: 10.2px;" transform="translate(5,97.5)" y="0" x="0" id="text-entity-PRODUCT-b14524a1-8e20-5805-a382-423fd1ec339f-attr-4-type" class="er entityLabel">decimal</text><rect height="21" width="76.0306396484375" y="87" x="45.109375" class="er attributeBoxEven"></rect><text style="dominant-baseline: middle; font-size: 10.2px;" transform="translate(50.109375,97.5)" y="0" x="0" id="text-entity-PRODUCT-b14524a1-8e20-5805-a382-423fd1ec339f-attr-4-name" class="er entityLabel">price</text><rect height="21" width="23.79498291015625" y="87" x="121.1400146484375" class="er attributeBoxEven"></rect><text style="dominant-baseline: middle; font-size: 10.2px;" transform="translate(126.1400146484375,97.5)" y="0" x="0" id="text-entity-PRODUCT-b14524a1-8e20-5805-a382-423fd1ec339f-attr-4-key" class="er entityLabel"></text><rect height="21" width="45.109375" y="108" x="0" class="er attributeBoxOdd"></rect><text style="dominant-baseline: middle; font-size: 10.2px;" transform="translate(5,118.5)" y="0" x="0" id="text-entity-PRODUCT-b14524a1-8e20-5805-a382-423fd1ec339f-attr-5-type" class="er entityLabel">integer</text><rect height="21" width="76.0306396484375" y="108" x="45.109375" class="er attributeBoxOdd"></rect><text style="dominant-baseline: middle; font-size: 10.2px;" transform="translate(50.109375,118.5)" y="0" x="0" id="text-entity-PRODUCT-b14524a1-8e20-5805-a382-423fd1ec339f-attr-5-name" class="er entityLabel">stock_quantity</text><rect height="21" width="23.79498291015625" y="108" x="121.1400146484375" class="er attributeBoxOdd"></rect><text style="dominant-baseline: middle; font-size: 10.2px;" transform="translate(126.1400146484375,118.5)" y="0" x="0" id="text-entity-PRODUCT-b14524a1-8e20-5805-a382-423fd1ec339f-attr-5-key" class="er entityLabel"></text></g><g transform="translate(20,249 )" id="entity-ORDER-36941e20-eb1d-50a3-81c5-00079b43c24a"><rect height="87" width="124.86404418945312" y="0" x="0" class="er entityBox"></rect><text style="dominant-baseline: middle; text-anchor: middle; font-size: 12px;" transform="translate(62.43202209472656,12)" y="0" x="0" id="text-entity-ORDER-36941e20-eb1d-50a3-81c5-00079b43c24a" class="er entityLabel">ORDER</text><rect height="21" width="35.245819091796875" y="24" x="0" class="er attributeBoxOdd"></rect><text style="dominant-baseline: middle; font-size: 10.2px;" transform="translate(5,34.5)" y="0" x="0" id="text-entity-ORDER-36941e20-eb1d-50a3-81c5-00079b43c24a-attr-1-type" class="er entityLabel">string</text><rect height="21" width="65.8232421875" y="24" x="35.245819091796875" class="er attributeBoxOdd"></rect><text style="dominant-baseline: middle; font-size: 10.2px;" transform="translate(40.245819091796875,34.5)" y="0" x="0" id="text-entity-ORDER-36941e20-eb1d-50a3-81c5-00079b43c24a-attr-1-name" class="er entityLabel">id</text><rect height="21" width="23.79498291015625" y="24" x="101.06906127929688" class="er attributeBoxOdd"></rect><text style="dominant-baseline: middle; font-size: 10.2px;" transform="translate(106.06906127929688,34.5)" y="0" x="0" id="text-entity-ORDER-36941e20-eb1d-50a3-81c5-00079b43c24a-attr-1-key" class="er entityLabel">PK</text><rect height="21" width="35.245819091796875" y="45" x="0" class="er attributeBoxEven"></rect><text style="dominant-baseline: middle; font-size: 10.2px;" transform="translate(5,55.5)" y="0" x="0" id="text-entity-ORDER-36941e20-eb1d-50a3-81c5-00079b43c24a-attr-2-type" class="er entityLabel">date</text><rect height="21" width="65.8232421875" y="45" x="35.245819091796875" class="er attributeBoxEven"></rect><text style="dominant-baseline: middle; font-size: 10.2px;" transform="translate(40.245819091796875,55.5)" y="0" x="0" id="text-entity-ORDER-36941e20-eb1d-50a3-81c5-00079b43c24a-attr-2-name" class="er entityLabel">order_date</text><rect height="21" width="23.79498291015625" y="45" x="101.06906127929688" class="er attributeBoxEven"></rect><text style="dominant-baseline: middle; font-size: 10.2px;" transform="translate(106.06906127929688,55.5)" y="0" x="0" id="text-entity-ORDER-36941e20-eb1d-50a3-81c5-00079b43c24a-attr-2-key" class="er entityLabel"></text><rect height="21" width="35.245819091796875" y="66" x="0" class="er attributeBoxOdd"></rect><text style="dominant-baseline: middle; font-size: 10.2px;" transform="translate(5,76.5)" y="0" x="0" id="text-entity-ORDER-36941e20-eb1d-50a3-81c5-00079b43c24a-attr-3-type" class="er entityLabel">string</text><rect height="21" width="65.8232421875" y="66" x="35.245819091796875" class="er attributeBoxOdd"></rect><text style="dominant-baseline: middle; font-size: 10.2px;" transform="translate(40.245819091796875,76.5)" y="0" x="0" id="text-entity-ORDER-36941e20-eb1d-50a3-81c5-00079b43c24a-attr-3-name" class="er entityLabel">customer_id</text><rect height="21" width="23.79498291015625" y="66" x="101.06906127929688" class="er attributeBoxOdd"></rect><text style="dominant-baseline: middle; font-size: 10.2px;" transform="translate(106.06906127929688,76.5)" y="0" x="0" id="text-entity-ORDER-36941e20-eb1d-50a3-81c5-00079b43c24a-attr-3-key" class="er entityLabel">FK</text></g><g transform="translate(138.15129852294922,457 )" id="entity-ORDERITEM-e5349d72-b47b-55be-8020-113016425f62"><rect height="108" width="123.46096801757812" y="0" x="0" class="er entityBox"></rect><text style="dominant-baseline: middle; text-anchor: middle; font-size: 12px;" transform="translate(61.73048400878906,12)" y="0" x="0" id="text-entity-ORDERITEM-e5349d72-b47b-55be-8020-113016425f62" class="er entityLabel">ORDER_ITEM</text><rect height="21" width="41.7569580078125" y="24" x="0" class="er attributeBoxOdd"></rect><text style="dominant-baseline: middle; font-size: 10.2px;" transform="translate(5,34.5)" y="0" x="0" id="text-entity-ORDERITEM-e5349d72-b47b-55be-8020-113016425f62-attr-1-type" class="er entityLabel">string</text><rect height="21" width="57.909027099609375" y="24" x="41.7569580078125" class="er attributeBoxOdd"></rect><text style="dominant-baseline: middle; font-size: 10.2px;" transform="translate(46.7569580078125,34.5)" y="0" x="0" id="text-entity-ORDERITEM-e5349d72-b47b-55be-8020-113016425f62-attr-1-name" class="er entityLabel">id</text><rect height="21" width="23.79498291015625" y="24" x="99.66598510742188" class="er attributeBoxOdd"></rect><text style="dominant-baseline: middle; font-size: 10.2px;" transform="translate(104.66598510742188,34.5)" y="0" x="0" id="text-entity-ORDERITEM-e5349d72-b47b-55be-8020-113016425f62-attr-1-key" class="er entityLabel">PK</text><rect height="21" width="41.7569580078125" y="45" x="0" class="er attributeBoxEven"></rect><text style="dominant-baseline: middle; font-size: 10.2px;" transform="translate(5,55.5)" y="0" x="0" id="text-entity-ORDERITEM-e5349d72-b47b-55be-8020-113016425f62-attr-2-type" class="er entityLabel">string</text><rect height="21" width="57.909027099609375" y="45" x="41.7569580078125" class="er attributeBoxEven"></rect><text style="dominant-baseline: middle; font-size: 10.2px;" transform="translate(46.7569580078125,55.5)" y="0" x="0" id="text-entity-ORDERITEM-e5349d72-b47b-55be-8020-113016425f62-attr-2-name" class="er entityLabel">order_id</text><rect height="21" width="23.79498291015625" y="45" x="99.66598510742188" class="er attributeBoxEven"></rect><text style="dominant-baseline: middle; font-size: 10.2px;" transform="translate(104.66598510742188,55.5)" y="0" x="0" id="text-entity-ORDERITEM-e5349d72-b47b-55be-8020-113016425f62-attr-2-key" class="er entityLabel">FK</text><rect height="21" width="41.7569580078125" y="66" x="0" class="er attributeBoxOdd"></rect><text style="dominant-baseline: middle; font-size: 10.2px;" transform="translate(5,76.5)" y="0" x="0" id="text-entity-ORDERITEM-e5349d72-b47b-55be-8020-113016425f62-attr-3-type" class="er entityLabel">string</text><rect height="21" width="57.909027099609375" y="66" x="41.7569580078125" class="er attributeBoxOdd"></rect><text style="dominant-baseline: middle; font-size: 10.2px;" transform="translate(46.7569580078125,76.5)" y="0" x="0" id="text-entity-ORDERITEM-e5349d72-b47b-55be-8020-113016425f62-attr-3-name" class="er entityLabel">product_id</text><rect height="21" width="23.79498291015625" y="66" x="99.66598510742188" class="er attributeBoxOdd"></rect><text style="dominant-baseline: middle; font-size: 10.2px;" transform="translate(104.66598510742188,76.5)" y="0" x="0" id="text-entity-ORDERITEM-e5349d72-b47b-55be-8020-113016425f62-attr-3-key" class="er entityLabel">FK</text><rect height="21" width="41.7569580078125" y="87" x="0" class="er attributeBoxEven"></rect><text style="dominant-baseline: middle; font-size: 10.2px;" transform="translate(5,97.5)" y="0" x="0" id="text-entity-ORDERITEM-e5349d72-b47b-55be-8020-113016425f62-attr-4-type" class="er entityLabel">integer</text><rect height="21" width="57.909027099609375" y="87" x="41.7569580078125" class="er attributeBoxEven"></rect><text style="dominant-baseline: middle; font-size: 10.2px;" transform="translate(46.7569580078125,97.5)" y="0" x="0" id="text-entity-ORDERITEM-e5349d72-b47b-55be-8020-113016425f62-attr-4-name" class="er entityLabel">quantity</text><rect height="21" width="23.79498291015625" y="87" x="99.66598510742188" class="er attributeBoxEven"></rect><text style="dominant-baseline: middle; font-size: 10.2px;" transform="translate(104.66598510742188,97.5)" y="0" x="0" id="text-entity-ORDERITEM-e5349d72-b47b-55be-8020-113016425f62-attr-4-key" class="er entityLabel"></text></g><rect height="14" width="34.6875" y="181.5" x="65.08824920654297" class="er relationshipLabelBox"></rect><text style="text-anchor: middle; dominant-baseline: middle; font-size: 12px;" y="188.5" x="82.43199920654297" id="rel1" class="er relationshipLabel">places</text><rect height="14" width="44.703125" y="397.86529541015625" x="70.14556121826172" class="er relationshipLabelBox"></rect><text style="text-anchor: middle; dominant-baseline: middle; font-size: 12px;" y="404.86529541015625" x="92.49712371826172" id="rel2" class="er relationshipLabel">contains</text><rect height="14" width="44.03125" y="407.31695556640625" x="281.2089538574219" class="er relationshipLabelBox"></rect><text style="text-anchor: middle; dominant-baseline: middle; font-size: 12px;" y="414.31695556640625" x="303.2245788574219" id="rel3" class="er relationshipLabel">includes</text></svg>