<svg aria-roledescription="er" role="graphics-document document" viewBox="0 0 513.2531127929688 606" style="max-width: 513.2531127929688px;" xmlns:xlink="http://www.w3.org/1999/xlink" xmlns="http://www.w3.org/2000/svg" width="150" id="mermaid-1749545303361" height="900"><rect width="100%" height="100%" fill="white" stroke="none"></rect><style>#mermaid-1749545303361{font-family:"trebuchet ms",verdana,arial,sans-serif;font-size:16px;fill:#333;}#mermaid-1749545303361 .error-icon{fill:#552222;}#mermaid-1749545303361 .error-text{fill:#552222;stroke:#552222;}#mermaid-1749545303361 .edge-thickness-normal{stroke-width:2px;}#mermaid-1749545303361 .edge-thickness-thick{stroke-width:3.5px;}#mermaid-1749545303361 .edge-pattern-solid{stroke-dasharray:0;}#mermaid-1749545303361 .edge-pattern-dashed{stroke-dasharray:3;}#mermaid-1749545303361 .edge-pattern-dotted{stroke-dasharray:2;}#mermaid-1749545303361 .marker{fill:#333333;stroke:#333333;}#mermaid-1749545303361 .marker.cross{stroke:#333333;}#mermaid-1749545303361 svg{font-family:"trebuchet ms",verdana,arial,sans-serif;font-size:16px;}#mermaid-1749545303361 .entityBox{fill:#ffffff;stroke:#9370DB;}#mermaid-1749545303361 .attributeBoxOdd{fill:#ffffff;stroke:#9370DB;}#mermaid-1749545303361 .attributeBoxEven{fill:#f2f2f2;stroke:#9370DB;}#mermaid-1749545303361 .relationshipLabelBox{fill:hsl(80, 100%, 96.2745098039%);opacity:0.7;background-color:hsl(80, 100%, 96.2745098039%);}#mermaid-1749545303361 .relationshipLabelBox rect{opacity:0.5;}#mermaid-1749545303361 .relationshipLine{stroke:#333333;}#mermaid-1749545303361 .entityTitleText{text-anchor:middle;font-size:18px;fill:#333;}#mermaid-1749545303361 #MD_PARENT_START{fill:#f5f5f5!important;stroke:#333333!important;stroke-width:1;}#mermaid-1749545303361 #MD_PARENT_END{fill:#f5f5f5!important;stroke:#333333!important;stroke-width:1;}#mermaid-1749545303361 :root{--mermaid-font-family:"trebuchet ms",verdana,arial,sans-serif;}</style><g></g><defs><marker orient="auto" markerHeight="240" markerWidth="190" refY="7" refX="0" id="MD_PARENT_START"><path d="M 18,7 L9,13 L1,7 L9,1 Z"></path></marker></defs><defs><marker orient="auto" markerHeight="28" markerWidth="20" refY="7" refX="19" id="MD_PARENT_END"><path d="M 18,7 L9,13 L1,7 L9,1 Z"></path></marker></defs><defs><marker orient="auto" markerHeight="18" markerWidth="18" refY="9" refX="0" id="ONLY_ONE_START"><path d="M9,0 L9,18 M15,0 L15,18" fill="none" stroke="gray"></path></marker></defs><defs><marker orient="auto" markerHeight="18" markerWidth="18" refY="9" refX="18" id="ONLY_ONE_END"><path d="M3,0 L3,18 M9,0 L9,18" fill="none" stroke="gray"></path></marker></defs><defs><marker orient="auto" markerHeight="18" markerWidth="30" refY="9" refX="0" id="ZERO_OR_ONE_START"><circle r="6" cy="9" cx="21" fill="white" stroke="gray"></circle><path d="M9,0 L9,18" fill="none" stroke="gray"></path></marker></defs><defs><marker orient="auto" markerHeight="18" markerWidth="30" refY="9" refX="30" id="ZERO_OR_ONE_END"><circle r="6" cy="9" cx="9" fill="white" stroke="gray"></circle><path d="M21,0 L21,18" fill="none" stroke="gray"></path></marker></defs><defs><marker orient="auto" markerHeight="36" markerWidth="45" refY="18" refX="18" id="ONE_OR_MORE_START"><path d="M0,18 Q 18,0 36,18 Q 18,36 0,18 M42,9 L42,27" fill="none" stroke="gray"></path></marker></defs><defs><marker orient="auto" markerHeight="36" markerWidth="45" refY="18" refX="27" id="ONE_OR_MORE_END"><path d="M3,9 L3,27 M9,18 Q27,0 45,18 Q27,36 9,18" fill="none" stroke="gray"></path></marker></defs><defs><marker orient="auto" markerHeight="36" markerWidth="57" refY="18" refX="18" id="ZERO_OR_MORE_START"><circle r="6" cy="18" cx="48" fill="white" stroke="gray"></circle><path d="M0,18 Q18,0 36,18 Q18,36 0,18" fill="none" stroke="gray"></path></marker></defs><defs><marker orient="auto" markerHeight="36" markerWidth="57" refY="18" refX="39" id="ZERO_OR_MORE_END"><circle r="6" cy="18" cx="9" fill="white" stroke="gray"></circle><path d="M21,18 Q39,0 57,18 Q39,36 21,18" fill="none" stroke="gray"></path></marker></defs><path style="stroke: gray; fill: none;" marker-start="url(#ONLY_ONE_START)" marker-end="url(#ZERO_OR_MORE_END)" d="M82.432,149L82.432,157.333C82.432,165.667,82.432,182.333,82.432,200.75C82.432,219.167,82.432,239.333,82.432,249.417L82.432,259.5" class="er relationshipLine"></path><path style="stroke: gray; fill: none;" marker-start="url(#ONLY_ONE_START)" marker-end="url(#ZERO_OR_MORE_END)" d="M82.432,367.5L82.432,377.583C82.432,387.667,82.432,407.833,86.438,426.25C90.445,444.667,98.458,461.333,102.464,469.667L106.47,478" class="er relationshipLine"></path><path style="stroke: gray; fill: none;" marker-start="url(#ONLY_ONE_START)" marker-end="url(#ZERO_OR_MORE_END)" d="M301.894,378L293.381,386.333C284.867,394.667,267.841,411.333,249.343,428.438C230.845,445.543,210.876,463.086,200.892,471.858L190.907,480.629" class="er relationshipLine"></path><path style="stroke: gray; fill: none;" marker-start="url(#ONLY_ONE_START)" marker-end="url(#ZERO_OR_MORE_END)" d="M395.952,378L399.591,386.333C403.23,394.667,410.508,411.333,414.147,428C417.786,444.667,417.786,461.333,417.786,469.667L417.786,478" class="er relationshipLine"></path><g transform="translate(29.78662109375,20 )" id="entity-CUSTOMER-7c659eae-ee79-5f5d-acd7-c418f8ad1d67"><rect height="129" width="105.29080200195312" y="0" x="0" class="er entityBox"></rect><text style="dominant-baseline: middle; text-anchor: middle; font-size: 12px;" transform="translate(52.64540100097656,12)" y="0" x="0" id="text-entity-CUSTOMER-7c659eae-ee79-5f5d-acd7-c418f8ad1d67" class="er entityLabel">CUSTOMER</text><rect height="21" width="35.245819091796875" y="24" x="0" class="er attributeBoxOdd"></rect><text style="dominant-baseline: middle; font-size: 10.2px;" transform="translate(5,34.5)" y="0" x="0" id="text-entity-CUSTOMER-7c659eae-ee79-5f5d-acd7-c418f8ad1d67-attr-1-type" class="er entityLabel">string</text><rect height="21" width="46.25" y="24" x="35.245819091796875" class="er attributeBoxOdd"></rect><text style="dominant-baseline: middle; font-size: 10.2px;" transform="translate(40.245819091796875,34.5)" y="0" x="0" id="text-entity-CUSTOMER-7c659eae-ee79-5f5d-acd7-c418f8ad1d67-attr-1-name" class="er entityLabel">id</text><rect height="21" width="23.79498291015625" y="24" x="81.49581909179688" class="er attributeBoxOdd"></rect><text style="dominant-baseline: middle; font-size: 10.2px;" transform="translate(86.49581909179688,34.5)" y="0" x="0" id="text-entity-CUSTOMER-7c659eae-ee79-5f5d-acd7-c418f8ad1d67-attr-1-key" class="er entityLabel">PK</text><rect height="21" width="35.245819091796875" y="45" x="0" class="er attributeBoxEven"></rect><text style="dominant-baseline: middle; font-size: 10.2px;" transform="translate(5,55.5)" y="0" x="0" id="text-entity-CUSTOMER-7c659eae-ee79-5f5d-acd7-c418f8ad1d67-attr-2-type" class="er entityLabel">string</text><rect height="21" width="46.25" y="45" x="35.245819091796875" class="er attributeBoxEven"></rect><text style="dominant-baseline: middle; font-size: 10.2px;" transform="translate(40.245819091796875,55.5)" y="0" x="0" id="text-entity-CUSTOMER-7c659eae-ee79-5f5d-acd7-c418f8ad1d67-attr-2-name" class="er entityLabel">name</text><rect height="21" width="23.79498291015625" y="45" x="81.49581909179688" class="er attributeBoxEven"></rect><text style="dominant-baseline: middle; font-size: 10.2px;" transform="translate(86.49581909179688,55.5)" y="0" x="0" id="text-entity-CUSTOMER-7c659eae-ee79-5f5d-acd7-c418f8ad1d67-attr-2-key" class="er entityLabel"></text><rect height="21" width="35.245819091796875" y="66" x="0" class="er attributeBoxOdd"></rect><text style="dominant-baseline: middle; font-size: 10.2px;" transform="translate(5,76.5)" y="0" x="0" id="text-entity-CUSTOMER-7c659eae-ee79-5f5d-acd7-c418f8ad1d67-attr-3-type" class="er entityLabel">string</text><rect height="21" width="46.25" y="66" x="35.245819091796875" class="er attributeBoxOdd"></rect><text style="dominant-baseline: middle; font-size: 10.2px;" transform="translate(40.245819091796875,76.5)" y="0" x="0" id="text-entity-CUSTOMER-7c659eae-ee79-5f5d-acd7-c418f8ad1d67-attr-3-name" class="er entityLabel">email</text><rect height="21" width="23.79498291015625" y="66" x="81.49581909179688" class="er attributeBoxOdd"></rect><text style="dominant-baseline: middle; font-size: 10.2px;" transform="translate(86.49581909179688,76.5)" y="0" x="0" id="text-entity-CUSTOMER-7c659eae-ee79-5f5d-acd7-c418f8ad1d67-attr-3-key" class="er entityLabel"></text><rect height="21" width="35.245819091796875" y="87" x="0" class="er attributeBoxEven"></rect><text style="dominant-baseline: middle; font-size: 10.2px;" transform="translate(5,97.5)" y="0" x="0" id="text-entity-CUSTOMER-7c659eae-ee79-5f5d-acd7-c418f8ad1d67-attr-4-type" class="er entityLabel">string</text><rect height="21" width="46.25" y="87" x="35.245819091796875" class="er attributeBoxEven"></rect><text style="dominant-baseline: middle; font-size: 10.2px;" transform="translate(40.245819091796875,97.5)" y="0" x="0" id="text-entity-CUSTOMER-7c659eae-ee79-5f5d-acd7-c418f8ad1d67-attr-4-name" class="er entityLabel">phone</text><rect height="21" width="23.79498291015625" y="87" x="81.49581909179688" class="er attributeBoxEven"></rect><text style="dominant-baseline: middle; font-size: 10.2px;" transform="translate(86.49581909179688,97.5)" y="0" x="0" id="text-entity-CUSTOMER-7c659eae-ee79-5f5d-acd7-c418f8ad1d67-attr-4-key" class="er entityLabel"></text><rect height="21" width="35.245819091796875" y="108" x="0" class="er attributeBoxOdd"></rect><text style="dominant-baseline: middle; font-size: 10.2px;" transform="translate(5,118.5)" y="0" x="0" id="text-entity-CUSTOMER-7c659eae-ee79-5f5d-acd7-c418f8ad1d67-attr-5-type" class="er entityLabel">string</text><rect height="21" width="46.25" y="108" x="35.245819091796875" class="er attributeBoxOdd"></rect><text style="dominant-baseline: middle; font-size: 10.2px;" transform="translate(40.245819091796875,118.5)" y="0" x="0" id="text-entity-CUSTOMER-7c659eae-ee79-5f5d-acd7-c418f8ad1d67-attr-5-name" class="er entityLabel">address</text><rect height="21" width="23.79498291015625" y="108" x="81.49581909179688" class="er attributeBoxOdd"></rect><text style="dominant-baseline: middle; font-size: 10.2px;" transform="translate(86.49581909179688,118.5)" y="0" x="0" id="text-entity-CUSTOMER-7c659eae-ee79-5f5d-acd7-c418f8ad1d67-attr-5-key" class="er entityLabel"></text></g><g transform="translate(20,259.5 )" id="entity-ORDER-36941e20-eb1d-50a3-81c5-00079b43c24a"><rect height="108" width="124.86404418945312" y="0" x="0" class="er entityBox"></rect><text style="dominant-baseline: middle; text-anchor: middle; font-size: 12px;" transform="translate(62.43202209472656,12)" y="0" x="0" id="text-entity-ORDER-36941e20-eb1d-50a3-81c5-00079b43c24a" class="er entityLabel">ORDER</text><rect height="21" width="35.245819091796875" y="24" x="0" class="er attributeBoxOdd"></rect><text style="dominant-baseline: middle; font-size: 10.2px;" transform="translate(5,34.5)" y="0" x="0" id="text-entity-ORDER-36941e20-eb1d-50a3-81c5-00079b43c24a-attr-1-type" class="er entityLabel">string</text><rect height="21" width="65.8232421875" y="24" x="35.245819091796875" class="er attributeBoxOdd"></rect><text style="dominant-baseline: middle; font-size: 10.2px;" transform="translate(40.245819091796875,34.5)" y="0" x="0" id="text-entity-ORDER-36941e20-eb1d-50a3-81c5-00079b43c24a-attr-1-name" class="er entityLabel">id</text><rect height="21" width="23.79498291015625" y="24" x="101.06906127929688" class="er attributeBoxOdd"></rect><text style="dominant-baseline: middle; font-size: 10.2px;" transform="translate(106.06906127929688,34.5)" y="0" x="0" id="text-entity-ORDER-36941e20-eb1d-50a3-81c5-00079b43c24a-attr-1-key" class="er entityLabel">PK</text><rect height="21" width="35.245819091796875" y="45" x="0" class="er attributeBoxEven"></rect><text style="dominant-baseline: middle; font-size: 10.2px;" transform="translate(5,55.5)" y="0" x="0" id="text-entity-ORDER-36941e20-eb1d-50a3-81c5-00079b43c24a-attr-2-type" class="er entityLabel">date</text><rect height="21" width="65.8232421875" y="45" x="35.245819091796875" class="er attributeBoxEven"></rect><text style="dominant-baseline: middle; font-size: 10.2px;" transform="translate(40.245819091796875,55.5)" y="0" x="0" id="text-entity-ORDER-36941e20-eb1d-50a3-81c5-00079b43c24a-attr-2-name" class="er entityLabel">order_date</text><rect height="21" width="23.79498291015625" y="45" x="101.06906127929688" class="er attributeBoxEven"></rect><text style="dominant-baseline: middle; font-size: 10.2px;" transform="translate(106.06906127929688,55.5)" y="0" x="0" id="text-entity-ORDER-36941e20-eb1d-50a3-81c5-00079b43c24a-attr-2-key" class="er entityLabel"></text><rect height="21" width="35.245819091796875" y="66" x="0" class="er attributeBoxOdd"></rect><text style="dominant-baseline: middle; font-size: 10.2px;" transform="translate(5,76.5)" y="0" x="0" id="text-entity-ORDER-36941e20-eb1d-50a3-81c5-00079b43c24a-attr-3-type" class="er entityLabel">string</text><rect height="21" width="65.8232421875" y="66" x="35.245819091796875" class="er attributeBoxOdd"></rect><text style="dominant-baseline: middle; font-size: 10.2px;" transform="translate(40.245819091796875,76.5)" y="0" x="0" id="text-entity-ORDER-36941e20-eb1d-50a3-81c5-00079b43c24a-attr-3-name" class="er entityLabel">customer_id</text><rect height="21" width="23.79498291015625" y="66" x="101.06906127929688" class="er attributeBoxOdd"></rect><text style="dominant-baseline: middle; font-size: 10.2px;" transform="translate(106.06906127929688,76.5)" y="0" x="0" id="text-entity-ORDER-36941e20-eb1d-50a3-81c5-00079b43c24a-attr-3-key" class="er entityLabel">FK</text><rect height="21" width="35.245819091796875" y="87" x="0" class="er attributeBoxEven"></rect><text style="dominant-baseline: middle; font-size: 10.2px;" transform="translate(5,97.5)" y="0" x="0" id="text-entity-ORDER-36941e20-eb1d-50a3-81c5-00079b43c24a-attr-4-type" class="er entityLabel">string</text><rect height="21" width="65.8232421875" y="87" x="35.245819091796875" class="er attributeBoxEven"></rect><text style="dominant-baseline: middle; font-size: 10.2px;" transform="translate(40.245819091796875,97.5)" y="0" x="0" id="text-entity-ORDER-36941e20-eb1d-50a3-81c5-00079b43c24a-attr-4-name" class="er entityLabel">status</text><rect height="21" width="23.79498291015625" y="87" x="101.06906127929688" class="er attributeBoxEven"></rect><text style="dominant-baseline: middle; font-size: 10.2px;" transform="translate(106.06906127929688,97.5)" y="0" x="0" id="text-entity-ORDER-36941e20-eb1d-50a3-81c5-00079b43c24a-attr-4-key" class="er entityLabel"></text></g><g transform="translate(293.4525680541992,249 )" id="entity-PRODUCT-b14524a1-8e20-5805-a382-423fd1ec339f"><rect height="129" width="148.6663818359375" y="0" x="0" class="er entityBox"></rect><text style="dominant-baseline: middle; text-anchor: middle; font-size: 12px;" transform="translate(74.33319091796875,12)" y="0" x="0" id="text-entity-PRODUCT-b14524a1-8e20-5805-a382-423fd1ec339f" class="er entityLabel">PRODUCT</text><rect height="21" width="35.245819091796875" y="24" x="0" class="er attributeBoxOdd"></rect><text style="dominant-baseline: middle; font-size: 10.2px;" transform="translate(5,34.5)" y="0" x="0" id="text-entity-PRODUCT-b14524a1-8e20-5805-a382-423fd1ec339f-attr-1-type" class="er entityLabel">string</text><rect height="21" width="89.62557983398438" y="24" x="35.245819091796875" class="er attributeBoxOdd"></rect><text style="dominant-baseline: middle; font-size: 10.2px;" transform="translate(40.245819091796875,34.5)" y="0" x="0" id="text-entity-PRODUCT-b14524a1-8e20-5805-a382-423fd1ec339f-attr-1-name" class="er entityLabel">id</text><rect height="21" width="23.79498291015625" y="24" x="124.87139892578125" class="er attributeBoxOdd"></rect><text style="dominant-baseline: middle; font-size: 10.2px;" transform="translate(129.87139892578125,34.5)" y="0" x="0" id="text-entity-PRODUCT-b14524a1-8e20-5805-a382-423fd1ec339f-attr-1-key" class="er entityLabel">PK</text><rect height="21" width="35.245819091796875" y="45" x="0" class="er attributeBoxEven"></rect><text style="dominant-baseline: middle; font-size: 10.2px;" transform="translate(5,55.5)" y="0" x="0" id="text-entity-PRODUCT-b14524a1-8e20-5805-a382-423fd1ec339f-attr-2-type" class="er entityLabel">string</text><rect height="21" width="89.62557983398438" y="45" x="35.245819091796875" class="er attributeBoxEven"></rect><text style="dominant-baseline: middle; font-size: 10.2px;" transform="translate(40.245819091796875,55.5)" y="0" x="0" id="text-entity-PRODUCT-b14524a1-8e20-5805-a382-423fd1ec339f-attr-2-name" class="er entityLabel">name</text><rect height="21" width="23.79498291015625" y="45" x="124.87139892578125" class="er attributeBoxEven"></rect><text style="dominant-baseline: middle; font-size: 10.2px;" transform="translate(129.87139892578125,55.5)" y="0" x="0" id="text-entity-PRODUCT-b14524a1-8e20-5805-a382-423fd1ec339f-attr-2-key" class="er entityLabel"></text><rect height="21" width="35.245819091796875" y="66" x="0" class="er attributeBoxOdd"></rect><text style="dominant-baseline: middle; font-size: 10.2px;" transform="translate(5,76.5)" y="0" x="0" id="text-entity-PRODUCT-b14524a1-8e20-5805-a382-423fd1ec339f-attr-3-type" class="er entityLabel">string</text><rect height="21" width="89.62557983398438" y="66" x="35.245819091796875" class="er attributeBoxOdd"></rect><text style="dominant-baseline: middle; font-size: 10.2px;" transform="translate(40.245819091796875,76.5)" y="0" x="0" id="text-entity-PRODUCT-b14524a1-8e20-5805-a382-423fd1ec339f-attr-3-name" class="er entityLabel">flavor</text><rect height="21" width="23.79498291015625" y="66" x="124.87139892578125" class="er attributeBoxOdd"></rect><text style="dominant-baseline: middle; font-size: 10.2px;" transform="translate(129.87139892578125,76.5)" y="0" x="0" id="text-entity-PRODUCT-b14524a1-8e20-5805-a382-423fd1ec339f-attr-3-key" class="er entityLabel"></text><rect height="21" width="35.245819091796875" y="87" x="0" class="er attributeBoxEven"></rect><text style="dominant-baseline: middle; font-size: 10.2px;" transform="translate(5,97.5)" y="0" x="0" id="text-entity-PRODUCT-b14524a1-8e20-5805-a382-423fd1ec339f-attr-4-type" class="er entityLabel">float</text><rect height="21" width="89.62557983398438" y="87" x="35.245819091796875" class="er attributeBoxEven"></rect><text style="dominant-baseline: middle; font-size: 10.2px;" transform="translate(40.245819091796875,97.5)" y="0" x="0" id="text-entity-PRODUCT-b14524a1-8e20-5805-a382-423fd1ec339f-attr-4-name" class="er entityLabel">price</text><rect height="21" width="23.79498291015625" y="87" x="124.87139892578125" class="er attributeBoxEven"></rect><text style="dominant-baseline: middle; font-size: 10.2px;" transform="translate(129.87139892578125,97.5)" y="0" x="0" id="text-entity-PRODUCT-b14524a1-8e20-5805-a382-423fd1ec339f-attr-4-key" class="er entityLabel"></text><rect height="21" width="35.245819091796875" y="108" x="0" class="er attributeBoxOdd"></rect><text style="dominant-baseline: middle; font-size: 10.2px;" transform="translate(5,118.5)" y="0" x="0" id="text-entity-PRODUCT-b14524a1-8e20-5805-a382-423fd1ec339f-attr-5-type" class="er entityLabel">int</text><rect height="21" width="89.62557983398438" y="108" x="35.245819091796875" class="er attributeBoxOdd"></rect><text style="dominant-baseline: middle; font-size: 10.2px;" transform="translate(40.245819091796875,118.5)" y="0" x="0" id="text-entity-PRODUCT-b14524a1-8e20-5805-a382-423fd1ec339f-attr-5-name" class="er entityLabel">quantity_in_stock</text><rect height="21" width="23.79498291015625" y="108" x="124.87139892578125" class="er attributeBoxOdd"></rect><text style="dominant-baseline: middle; font-size: 10.2px;" transform="translate(129.87139892578125,118.5)" y="0" x="0" id="text-entity-PRODUCT-b14524a1-8e20-5805-a382-423fd1ec339f-attr-5-key" class="er entityLabel"></text></g><g transform="translate(73.95710754394531,478 )" id="entity-ORDERITEM-e5349d72-b47b-55be-8020-113016425f62"><rect height="108" width="116.9498291015625" y="0" x="0" class="er entityBox"></rect><text style="dominant-baseline: middle; text-anchor: middle; font-size: 12px;" transform="translate(58.47491455078125,12)" y="0" x="0" id="text-entity-ORDERITEM-e5349d72-b47b-55be-8020-113016425f62" class="er entityLabel">ORDER_ITEM</text><rect height="21" width="35.245819091796875" y="24" x="0" class="er attributeBoxOdd"></rect><text style="dominant-baseline: middle; font-size: 10.2px;" transform="translate(5,34.5)" y="0" x="0" id="text-entity-ORDERITEM-e5349d72-b47b-55be-8020-113016425f62-attr-1-type" class="er entityLabel">string</text><rect height="21" width="57.909027099609375" y="24" x="35.245819091796875" class="er attributeBoxOdd"></rect><text style="dominant-baseline: middle; font-size: 10.2px;" transform="translate(40.245819091796875,34.5)" y="0" x="0" id="text-entity-ORDERITEM-e5349d72-b47b-55be-8020-113016425f62-attr-1-name" class="er entityLabel">id</text><rect height="21" width="23.79498291015625" y="24" x="93.15484619140625" class="er attributeBoxOdd"></rect><text style="dominant-baseline: middle; font-size: 10.2px;" transform="translate(98.15484619140625,34.5)" y="0" x="0" id="text-entity-ORDERITEM-e5349d72-b47b-55be-8020-113016425f62-attr-1-key" class="er entityLabel">PK</text><rect height="21" width="35.245819091796875" y="45" x="0" class="er attributeBoxEven"></rect><text style="dominant-baseline: middle; font-size: 10.2px;" transform="translate(5,55.5)" y="0" x="0" id="text-entity-ORDERITEM-e5349d72-b47b-55be-8020-113016425f62-attr-2-type" class="er entityLabel">string</text><rect height="21" width="57.909027099609375" y="45" x="35.245819091796875" class="er attributeBoxEven"></rect><text style="dominant-baseline: middle; font-size: 10.2px;" transform="translate(40.245819091796875,55.5)" y="0" x="0" id="text-entity-ORDERITEM-e5349d72-b47b-55be-8020-113016425f62-attr-2-name" class="er entityLabel">order_id</text><rect height="21" width="23.79498291015625" y="45" x="93.15484619140625" class="er attributeBoxEven"></rect><text style="dominant-baseline: middle; font-size: 10.2px;" transform="translate(98.15484619140625,55.5)" y="0" x="0" id="text-entity-ORDERITEM-e5349d72-b47b-55be-8020-113016425f62-attr-2-key" class="er entityLabel">FK</text><rect height="21" width="35.245819091796875" y="66" x="0" class="er attributeBoxOdd"></rect><text style="dominant-baseline: middle; font-size: 10.2px;" transform="translate(5,76.5)" y="0" x="0" id="text-entity-ORDERITEM-e5349d72-b47b-55be-8020-113016425f62-attr-3-type" class="er entityLabel">string</text><rect height="21" width="57.909027099609375" y="66" x="35.245819091796875" class="er attributeBoxOdd"></rect><text style="dominant-baseline: middle; font-size: 10.2px;" transform="translate(40.245819091796875,76.5)" y="0" x="0" id="text-entity-ORDERITEM-e5349d72-b47b-55be-8020-113016425f62-attr-3-name" class="er entityLabel">product_id</text><rect height="21" width="23.79498291015625" y="66" x="93.15484619140625" class="er attributeBoxOdd"></rect><text style="dominant-baseline: middle; font-size: 10.2px;" transform="translate(98.15484619140625,76.5)" y="0" x="0" id="text-entity-ORDERITEM-e5349d72-b47b-55be-8020-113016425f62-attr-3-key" class="er entityLabel">FK</text><rect height="21" width="35.245819091796875" y="87" x="0" class="er attributeBoxEven"></rect><text style="dominant-baseline: middle; font-size: 10.2px;" transform="translate(5,97.5)" y="0" x="0" id="text-entity-ORDERITEM-e5349d72-b47b-55be-8020-113016425f62-attr-4-type" class="er entityLabel">int</text><rect height="21" width="57.909027099609375" y="87" x="35.245819091796875" class="er attributeBoxEven"></rect><text style="dominant-baseline: middle; font-size: 10.2px;" transform="translate(40.245819091796875,97.5)" y="0" x="0" id="text-entity-ORDERITEM-e5349d72-b47b-55be-8020-113016425f62-attr-4-name" class="er entityLabel">quantity</text><rect height="21" width="23.79498291015625" y="87" x="93.15484619140625" class="er attributeBoxEven"></rect><text style="dominant-baseline: middle; font-size: 10.2px;" transform="translate(98.15484619140625,97.5)" y="0" x="0" id="text-entity-ORDERITEM-e5349d72-b47b-55be-8020-113016425f62-attr-4-key" class="er entityLabel"></text></g><g transform="translate(342.3184127807617,478 )" id="entity-INVENTORY-b232307e-b448-5a56-92e5-ff3b082aa9d5"><rect height="108" width="150.9346923828125" y="0" x="0" class="er entityBox"></rect><text style="dominant-baseline: middle; text-anchor: middle; font-size: 12px;" transform="translate(75.46734619140625,12)" y="0" x="0" id="text-entity-INVENTORY-b232307e-b448-5a56-92e5-ff3b082aa9d5" class="er entityLabel">INVENTORY</text><rect height="21" width="35.245819091796875" y="24" x="0" class="er attributeBoxOdd"></rect><text style="dominant-baseline: middle; font-size: 10.2px;" transform="translate(5,34.5)" y="0" x="0" id="text-entity-INVENTORY-b232307e-b448-5a56-92e5-ff3b082aa9d5-attr-1-type" class="er entityLabel">string</text><rect height="21" width="91.89389038085938" y="24" x="35.245819091796875" class="er attributeBoxOdd"></rect><text style="dominant-baseline: middle; font-size: 10.2px;" transform="translate(40.245819091796875,34.5)" y="0" x="0" id="text-entity-INVENTORY-b232307e-b448-5a56-92e5-ff3b082aa9d5-attr-1-name" class="er entityLabel">id</text><rect height="21" width="23.79498291015625" y="24" x="127.13970947265625" class="er attributeBoxOdd"></rect><text style="dominant-baseline: middle; font-size: 10.2px;" transform="translate(132.13970947265625,34.5)" y="0" x="0" id="text-entity-INVENTORY-b232307e-b448-5a56-92e5-ff3b082aa9d5-attr-1-key" class="er entityLabel">PK</text><rect height="21" width="35.245819091796875" y="45" x="0" class="er attributeBoxEven"></rect><text style="dominant-baseline: middle; font-size: 10.2px;" transform="translate(5,55.5)" y="0" x="0" id="text-entity-INVENTORY-b232307e-b448-5a56-92e5-ff3b082aa9d5-attr-2-type" class="er entityLabel">string</text><rect height="21" width="91.89389038085938" y="45" x="35.245819091796875" class="er attributeBoxEven"></rect><text style="dominant-baseline: middle; font-size: 10.2px;" transform="translate(40.245819091796875,55.5)" y="0" x="0" id="text-entity-INVENTORY-b232307e-b448-5a56-92e5-ff3b082aa9d5-attr-2-name" class="er entityLabel">product_id</text><rect height="21" width="23.79498291015625" y="45" x="127.13970947265625" class="er attributeBoxEven"></rect><text style="dominant-baseline: middle; font-size: 10.2px;" transform="translate(132.13970947265625,55.5)" y="0" x="0" id="text-entity-INVENTORY-b232307e-b448-5a56-92e5-ff3b082aa9d5-attr-2-key" class="er entityLabel">FK</text><rect height="21" width="35.245819091796875" y="66" x="0" class="er attributeBoxOdd"></rect><text style="dominant-baseline: middle; font-size: 10.2px;" transform="translate(5,76.5)" y="0" x="0" id="text-entity-INVENTORY-b232307e-b448-5a56-92e5-ff3b082aa9d5-attr-3-type" class="er entityLabel">int</text><rect height="21" width="91.89389038085938" y="66" x="35.245819091796875" class="er attributeBoxOdd"></rect><text style="dominant-baseline: middle; font-size: 10.2px;" transform="translate(40.245819091796875,76.5)" y="0" x="0" id="text-entity-INVENTORY-b232307e-b448-5a56-92e5-ff3b082aa9d5-attr-3-name" class="er entityLabel">quantity_available</text><rect height="21" width="23.79498291015625" y="66" x="127.13970947265625" class="er attributeBoxOdd"></rect><text style="dominant-baseline: middle; font-size: 10.2px;" transform="translate(132.13970947265625,76.5)" y="0" x="0" id="text-entity-INVENTORY-b232307e-b448-5a56-92e5-ff3b082aa9d5-attr-3-key" class="er entityLabel"></text><rect height="21" width="35.245819091796875" y="87" x="0" class="er attributeBoxEven"></rect><text style="dominant-baseline: middle; font-size: 10.2px;" transform="translate(5,97.5)" y="0" x="0" id="text-entity-INVENTORY-b232307e-b448-5a56-92e5-ff3b082aa9d5-attr-4-type" class="er entityLabel">date</text><rect height="21" width="91.89389038085938" y="87" x="35.245819091796875" class="er attributeBoxEven"></rect><text style="dominant-baseline: middle; font-size: 10.2px;" transform="translate(40.245819091796875,97.5)" y="0" x="0" id="text-entity-INVENTORY-b232307e-b448-5a56-92e5-ff3b082aa9d5-attr-4-name" class="er entityLabel">restock_date</text><rect height="21" width="23.79498291015625" y="87" x="127.13970947265625" class="er attributeBoxEven"></rect><text style="dominant-baseline: middle; font-size: 10.2px;" transform="translate(132.13970947265625,97.5)" y="0" x="0" id="text-entity-INVENTORY-b232307e-b448-5a56-92e5-ff3b082aa9d5-attr-4-key" class="er entityLabel"></text></g><rect height="14" width="34.6875" y="197.25" x="65.08824920654297" class="er relationshipLabelBox"></rect><text style="text-anchor: middle; dominant-baseline: middle; font-size: 12px;" y="204.25" x="82.43199920654297" id="rel1" class="er relationshipLabel">places</text><rect height="14" width="44.703125" y="417.5997009277344" x="63.739097595214844" class="er relationshipLabelBox"></rect><text style="text-anchor: middle; dominant-baseline: middle; font-size: 12px;" y="424.5997009277344" x="86.09066009521484" id="rel2" class="er relationshipLabel">contains</text><rect height="14" width="44.03125" y="423.30615234375" x="225.3028106689453" class="er relationshipLabelBox"></rect><text style="text-anchor: middle; dominant-baseline: middle; font-size: 12px;" y="430.30615234375" x="247.3184356689453" id="rel3" class="er relationshipLabel">includes</text><rect height="14" width="19.359375" y="419.50787353515625" x="404.1317443847656" class="er relationshipLabelBox"></rect><text style="text-anchor: middle; dominant-baseline: middle; font-size: 12px;" y="426.50787353515625" x="413.8114318847656" id="rel4" class="er relationshipLabel">has</text></svg>